# Blender 3.5.0
# www.blender.org
mtllib Arrow.mtl
o Arrow_Cylinder.030
v 0.002086 -0.005098 -0.686575
v -0.068192 -0.045325 -0.727992
v -0.002724 0.003306 -0.686575
v -0.073003 -0.036921 -0.727992
v 0.002086 -0.005098 -0.497564
v -0.029392 -0.023116 -0.535717
v -0.002725 0.003306 -0.497564
v -0.034203 -0.014712 -0.535717
v -0.002725 0.003306 -0.551255
v -0.002725 0.003306 -0.571470
v -0.002725 0.003306 -0.591685
v -0.002725 0.003306 -0.611901
v -0.002725 0.003306 -0.632116
v -0.002725 0.003306 -0.652331
v -0.060316 -0.029659 -0.673995
v -0.030138 -0.012386 -0.647776
v -0.058097 -0.028390 -0.654546
v -0.049098 -0.023238 -0.600793
v -0.027256 -0.010736 -0.576627
v -0.044475 -0.020592 -0.578748
v 0.002086 -0.005098 -0.652331
v 0.002086 -0.005098 -0.632116
v 0.002086 -0.005098 -0.611901
v 0.002086 -0.005098 -0.591685
v 0.002086 -0.005098 -0.571470
v 0.002086 -0.005098 -0.551255
v -0.039664 -0.028996 -0.578748
v -0.022446 -0.019140 -0.576627
v -0.044287 -0.031642 -0.600793
v -0.053287 -0.036793 -0.654546
v -0.025328 -0.020789 -0.647776
v -0.055506 -0.038063 -0.673995
v 0.003026 0.002915 -0.686575
v 0.073003 -0.037834 -0.727992
v -0.001847 -0.005452 -0.686575
v 0.068130 -0.046201 -0.727992
v 0.003026 0.002915 -0.497564
v 0.034369 -0.015336 -0.535717
v -0.001847 -0.005452 -0.497564
v 0.029496 -0.023704 -0.535717
v -0.001847 -0.005452 -0.551255
v -0.001847 -0.005452 -0.571470
v -0.001847 -0.005452 -0.591685
v -0.001847 -0.005452 -0.611901
v -0.001847 -0.005452 -0.632116
v -0.001847 -0.005452 -0.652331
v 0.055498 -0.038845 -0.673995
v 0.025449 -0.021347 -0.647776
v 0.053289 -0.037559 -0.654546
v 0.044328 -0.032341 -0.600793
v 0.022580 -0.019676 -0.576627
v 0.039724 -0.029660 -0.578748
v 0.003026 0.002915 -0.652331
v 0.003026 0.002915 -0.632116
v 0.003026 0.002915 -0.611901
v 0.003026 0.002915 -0.591685
v 0.003026 0.002915 -0.571470
v 0.003026 0.002915 -0.551255
v 0.044597 -0.021292 -0.578748
v 0.027453 -0.011309 -0.576627
v 0.049200 -0.023973 -0.600793
v 0.058161 -0.029191 -0.654546
v 0.030322 -0.012980 -0.647776
v 0.060370 -0.030478 -0.673995
v -0.004384 -0.000277 -0.686575
v -0.004083 0.080699 -0.727992
v 0.005299 -0.000313 -0.686575
v 0.005601 0.080663 -0.727992
v -0.004384 -0.000277 -0.497564
v -0.004249 0.035993 -0.535717
v 0.005299 -0.000313 -0.497564
v 0.005434 0.035957 -0.535717
v 0.005299 -0.000313 -0.551255
v 0.005299 -0.000313 -0.571470
v 0.005299 -0.000313 -0.591685
v 0.005299 -0.000313 -0.611901
v 0.005299 -0.000313 -0.632116
v 0.005299 -0.000313 -0.652331
v 0.005546 0.066045 -0.673995
v 0.005417 0.031273 -0.647776
v 0.005537 0.063489 -0.654546
v 0.005498 0.053119 -0.600793
v 0.005404 0.027953 -0.576627
v 0.005478 0.047792 -0.578748
v -0.004384 -0.000277 -0.652331
v -0.004384 -0.000277 -0.632116
v -0.004384 -0.000277 -0.611901
v -0.004384 -0.000277 -0.591685
v -0.004384 -0.000277 -0.571470
v -0.004384 -0.000277 -0.551255
v -0.004205 0.047828 -0.578748
v -0.004279 0.027989 -0.576627
v -0.004185 0.053155 -0.600793
v -0.004146 0.063525 -0.654546
v -0.004266 0.031309 -0.647776
v -0.004137 0.066081 -0.673995
v 0.012415 -0.000820 0.502689
v 0.012415 -0.000820 -0.708561
v 0.006329 0.009722 0.502689
v 0.006329 0.009722 -0.708561
v -0.005844 0.009722 0.502689
v -0.005844 0.009722 -0.708561
v -0.011930 -0.000820 0.502689
v -0.011930 -0.000820 -0.708561
v -0.005844 -0.011362 0.502689
v -0.005844 -0.011362 -0.708561
v 0.006329 -0.011362 0.502689
v 0.006329 -0.011362 -0.708561
v 0.012415 -0.000820 0.523690
v 0.006329 0.034413 0.523690
v -0.005844 0.034413 0.523690
v -0.011930 -0.000820 0.523690
v -0.005844 -0.036053 0.523690
v 0.006329 -0.036053 0.523690
v 0.004027 -0.000820 0.727992
v 0.002135 0.002881 0.727992
v -0.001650 0.002881 0.727992
v -0.003542 -0.000820 0.727992
v -0.001650 -0.004520 0.727992
v 0.002135 -0.004520 0.727992
vn 0.8660 0.5000 -0.0000
vn -0.0000 1.0000 -0.0000
vn -0.8660 0.5000 -0.0000
vn -0.8660 -0.5000 -0.0000
vn -0.0000 -0.0000 -1.0000
vn -0.0000 -1.0000 -0.0000
vn 0.8660 -0.5000 -0.0000
vn -0.9662 0.1669 -0.1962
vn 0.8898 0.4549 0.0365
vn 0.9662 -0.1669 -0.1962
vn 0.9843 -0.1700 0.0465
vn -0.8898 -0.4550 0.0365
vn -0.9843 0.1700 0.0464
vn 0.9843 0.1700 0.0464
vn -0.9662 -0.1669 -0.1962
vn 0.9662 0.1669 -0.1962
vn 0.8898 -0.4550 0.0365
vn -0.9843 -0.1700 0.0465
vn -0.8898 0.4549 0.0365
vn -0.0000 0.6479 -0.7617
vn -0.0000 -0.6479 -0.7617
vn -0.0000 -0.0000 1.0000
vn -0.0000 0.9883 0.1525
vn -0.0000 -0.9883 0.1525
vn 0.3952 0.2262 -0.8903
vn -0.4968 0.8679 -0.0000
vn -0.6290 -0.3601 0.6890
vn 0.4968 -0.8679 -0.0000
vn 0.8679 0.4968 -0.0000
vn -0.8377 -0.4795 0.2613
vn -0.8368 -0.4790 0.2652
vn 0.0923 0.0528 -0.9943
vn -0.6011 -0.3441 0.7213
vn -0.8521 -0.4878 0.1894
vn 0.1785 0.1022 -0.9786
vn -0.5225 -0.2991 0.7985
vn 0.8679 0.4967 -0.0000
vn -0.3935 0.2292 -0.8903
vn -0.5032 -0.8642 -0.0000
vn 0.6263 -0.3648 0.6890
vn 0.5032 0.8642 -0.0000
vn -0.8641 0.5033 -0.0000
vn 0.8341 -0.4857 0.2613
vn 0.8332 -0.4852 0.2652
vn -0.0919 0.0535 -0.9943
vn 0.5985 -0.3486 0.7213
vn 0.8486 -0.4940 0.1894
vn -0.1777 0.1035 -0.9786
vn 0.5202 -0.3030 0.7985
vn -0.0017 -0.4554 -0.8903
vn 1.0000 -0.0037 -0.0000
vn 0.0027 0.7248 0.6890
vn -1.0000 0.0037 -0.0000
vn -0.0037 -1.0000 -0.0000
vn 0.0036 0.9652 0.2613
vn 0.0036 0.9642 0.2652
vn -0.0004 -0.1063 -0.9943
vn 0.0026 0.6926 0.7213
vn 0.0037 0.9819 0.1894
vn -0.0008 -0.2056 -0.9786
vn 0.0022 0.6020 0.7985
vn -0.8377 -0.4796 0.2613
vn -0.8522 -0.4878 0.1894
vn 0.6263 -0.3647 0.6890
vn 0.8341 -0.4858 0.2613
vn 0.5986 -0.3485 0.7213
vn 0.5203 -0.3030 0.7984
vn -0.5032 -0.8641 -0.0001
vt 0.342038 0.405595
vt 0.528210 0.509970
vt 0.335515 0.336834
vt 0.342038 0.460135
vt 0.376775 0.373148
vt 0.528842 0.102304
vt 0.335516 0.405595
vt 0.522129 0.509972
vt 0.409220 0.051003
vt 0.335515 0.460136
vt 0.523825 0.103157
vt 0.450733 0.016223
vt 0.560657 0.508100
vt 0.358967 0.211710
vt 0.528210 0.382665
vt 0.565672 0.412068
vt 0.560657 0.532529
vt 0.375015 0.240952
vt 0.432816 0.175934
vt 0.567179 0.508100
vt 0.522129 0.382667
vt 0.448962 0.147400
vt 0.567179 0.532529
vt 0.560657 0.412934
vt 0.522129 0.418830
vt 0.426113 0.140446
vt 0.423590 0.127084
vt 0.522129 0.432445
vt 0.522129 0.446061
vt 0.421066 0.113723
vt 0.522129 0.459677
vt 0.418543 0.100360
vt 0.416019 0.086999
vt 0.522129 0.473292
vt 0.522129 0.486908
vt 0.413495 0.073637
vt 0.523825 0.140036
vt 0.568851 0.290997
vt 0.449046 0.053250
vt 0.568851 0.267577
vt 0.335515 0.562765
vt 0.432273 0.073760
vt 0.335515 0.584463
vt 0.256203 0.494792
vt 0.450000 0.066340
vt 0.567179 0.581927
vt 0.256203 0.531254
vt 0.450733 0.102817
vt 0.475482 0.591257
vt 0.567179 0.564976
vt 0.439241 0.121091
vt 0.560657 0.383531
vt 0.475481 0.604620
vt 0.450414 0.117875
vt 0.528210 0.486906
vt 0.339764 0.314164
vt 0.342272 0.300782
vt 0.528210 0.473290
vt 0.528210 0.459675
vt 0.344781 0.287400
vt 0.528210 0.446058
vt 0.347289 0.274017
vt 0.349797 0.260635
vt 0.528210 0.432443
vt 0.528210 0.418827
vt 0.352305 0.247253
vt 0.482003 0.604620
vt 0.565672 0.382665
vt 0.376458 0.270738
vt 0.560658 0.564976
vt 0.482003 0.591258
vt 0.365353 0.267155
vt 0.261255 0.530641
vt 0.560657 0.581926
vt 0.376775 0.285917
vt 0.261255 0.494179
vt 0.342037 0.584463
vt 0.376047 0.322641
vt 0.342037 0.562765
vt 0.562329 0.267577
vt 0.358428 0.314619
vt 0.528842 0.139183
vt 0.562329 0.290998
vt 0.375099 0.335796
vt 0.295172 0.461733
vt 0.409221 0.336644
vt 0.529882 0.339018
vt 0.295172 0.407192
vt 0.450713 0.371413
vt 0.340523 0.493436
vt 0.301694 0.461733
vt 0.523806 0.339016
vt 0.335530 0.052531
vt 0.301694 0.407192
vt 0.335515 0.492582
vt 0.376773 0.016223
vt 0.432806 0.211710
vt 0.561290 0.102304
vt 0.529882 0.211712
vt 0.561289 0.126733
vt 0.565664 0.475653
vt 0.448944 0.240240
vt 0.358972 0.177656
vt 0.567811 0.102304
vt 0.523806 0.211710
vt 0.560657 0.474786
vt 0.375014 0.148417
vt 0.567811 0.126733
vt 0.523806 0.247873
vt 0.352313 0.142113
vt 0.349806 0.128731
vt 0.523806 0.261489
vt 0.523806 0.275104
vt 0.347298 0.115348
vt 0.523806 0.288720
vt 0.344791 0.101965
vt 0.342284 0.088583
vt 0.523806 0.302336
vt 0.523806 0.315951
vt 0.339777 0.075201
vt 0.335515 0.529464
vt 0.568850 0.346865
vt 0.375098 0.053574
vt 0.568850 0.323444
vt 0.415743 0.583537
vt 0.358433 0.074748
vt 0.415743 0.561838
vt 0.296650 0.494180
vt 0.376046 0.066730
vt 0.604632 0.462332
vt 0.296650 0.530643
vt 0.376773 0.103453
vt 0.514450 0.591257
vt 0.604632 0.445381
vt 0.365356 0.122213
vt 0.560657 0.445381
vt 0.514450 0.604620
vt 0.376456 0.118631
vt 0.529882 0.315953
vt 0.413494 0.314009
vt 0.416017 0.300647
vt 0.529882 0.302338
vt 0.529882 0.288722
vt 0.418539 0.287285
vt 0.529882 0.275106
vt 0.421061 0.273923
vt 0.423584 0.260561
vt 0.529882 0.261491
vt 0.529882 0.247875
vt 0.426106 0.247199
vt 0.520972 0.604620
vt 0.565664 0.446248
vt 0.450395 0.269764
vt 0.598110 0.445381
vt 0.520972 0.591258
vt 0.439228 0.266551
vt 0.301694 0.531257
vt 0.598110 0.462331
vt 0.450713 0.284822
vt 0.301694 0.494794
vt 0.409221 0.561839
vt 0.449981 0.321298
vt 0.409222 0.583537
vt 0.562329 0.323445
vt 0.432263 0.313882
vt 0.340523 0.530318
vt 0.562329 0.346864
vt 0.449028 0.334387
vt 0.256203 0.461733
vt 0.256203 0.140709
vt 0.483160 0.382665
vt 0.256203 0.407192
vt 0.303083 0.179264
vt 0.415744 0.492569
vt 0.489682 0.382665
vt 0.262725 0.461733
vt 0.256203 0.250258
vt 0.262725 0.407192
vt 0.409221 0.492568
vt 0.303069 0.211710
vt 0.415747 0.460121
vt 0.282849 0.016223
vt 0.483160 0.509967
vt 0.415743 0.433213
vt 0.301084 0.046403
vt 0.282841 0.374745
vt 0.409225 0.460120
vt 0.489682 0.509967
vt 0.301070 0.344569
vt 0.409221 0.433211
vt 0.489682 0.473805
vt 0.275274 0.339383
vt 0.272425 0.326069
vt 0.489682 0.460190
vt 0.489682 0.446575
vt 0.269576 0.312755
vt 0.489682 0.432959
vt 0.266727 0.299440
vt 0.263878 0.286126
vt 0.489682 0.419344
vt 0.489682 0.405729
vt 0.261029 0.272812
vt 0.409222 0.529391
vt 0.562329 0.211710
vt 0.301165 0.249308
vt 0.562329 0.235131
vt 0.562797 0.016223
vt 0.282229 0.271416
vt 0.562797 0.037922
vt 0.523829 0.016223
vt 0.302242 0.262474
vt 0.523825 0.052737
vt 0.303069 0.299320
vt 0.598119 0.382665
vt 0.523829 0.069856
vt 0.290095 0.318739
vt 0.598119 0.396027
vt 0.409225 0.403860
vt 0.302708 0.314581
vt 0.483160 0.405729
vt 0.261030 0.118155
vt 0.263880 0.104841
vt 0.483160 0.419344
vt 0.483160 0.432959
vt 0.266730 0.091527
vt 0.483160 0.446575
vt 0.269580 0.078213
vt 0.272430 0.064899
vt 0.483160 0.460190
vt 0.483160 0.473805
vt 0.275280 0.051585
vt 0.415747 0.403861
vt 0.604641 0.396027
vt 0.302723 0.076392
vt 0.530351 0.069857
vt 0.604641 0.382665
vt 0.290106 0.072232
vt 0.530347 0.052738
vt 0.303083 0.091653
vt 0.530351 0.016224
vt 0.569319 0.037922
vt 0.302256 0.128499
vt 0.569319 0.016223
vt 0.568850 0.235131
vt 0.282237 0.119554
vt 0.415744 0.529392
vt 0.568850 0.211710
vt 0.301178 0.141665
vt 0.040576 0.167964
vt 0.482582 0.558811
vt 0.056735 0.983623
vt 0.215557 0.830983
vt 0.032943 0.168118
vt 0.561289 0.159179
vt 0.049102 0.983777
vt 0.215557 0.016223
vt 0.489682 0.554712
vt 0.223756 0.830984
vt 0.112293 0.831882
vt 0.569488 0.159179
vt 0.223756 0.016225
vt 0.128439 0.016223
vt 0.489682 0.546513
vt 0.119941 0.832036
vt 0.136087 0.016377
vt 0.482582 0.542414
vt 0.183111 0.016224
vt 0.126319 0.832157
vt 0.301694 0.580334
vt 0.142465 0.016499
vt 0.475481 0.546513
vt 0.183111 0.832021
vt 0.174912 0.016223
vt 0.046981 0.167842
vt 0.293495 0.580334
vt 0.475481 0.554712
vt 0.174912 0.832021
vt 0.063140 0.983501
vt 0.040296 0.153822
vt 0.016223 0.154300
vt 0.483160 0.211710
vt 0.561289 0.175810
vt 0.095587 0.845701
vt 0.569488 0.175810
vt 0.491359 0.211710
vt 0.119661 0.846178
vt 0.142465 0.846622
vt 0.491378 0.153978
vt 0.301694 0.563704
vt 0.063140 0.153377
vt 0.293495 0.563704
vt 0.483179 0.153978
vt 0.036724 0.016267
vt 0.526318 0.177581
vt 0.034069 0.016320
vt 0.523825 0.176307
vt 0.485938 0.350218
vt 0.113403 0.983680
vt 0.523825 0.173757
vt 0.488488 0.350218
vt 0.116062 0.983733
vt 0.526318 0.172483
vt 0.118326 0.983776
vt 0.528810 0.173757
vt 0.488622 0.016223
vt 0.038997 0.016223
vt 0.528810 0.176307
vt 0.486072 0.016223
s 0
usemtl マテリアル
f 98/251/1 99/253/1 97/249/1
f 100/256/2 101/258/2 99/252/2
f 102/262/3 103/264/3 101/259/3
f 104/265/4 105/268/4 103/264/4
f 98/250/5 106/271/5 102/263/5
f 106/272/6 107/273/6 105/267/6
f 108/278/7 97/249/7 107/274/7
f 98/251/1 100/255/1 99/253/1
f 100/256/2 102/261/2 101/258/2
f 102/262/3 104/265/3 103/264/3
f 104/265/4 106/270/4 105/268/4
f 102/263/5 100/257/5 98/250/5
f 98/250/5 108/276/5 106/271/5
f 106/271/5 104/266/5 102/263/5
f 106/272/6 108/277/6 107/273/6
f 108/278/7 98/251/7 97/249/7
usemtl マテリアル.001
f 101/259/8 112/286/8 111/283/8
f 109/279/9 116/295/9 115/293/9
f 107/274/10 109/279/10 114/290/10
f 105/268/4 112/286/4 103/264/4
f 99/253/1 109/279/1 97/249/1
f 109/279/11 120/306/11 114/290/11
f 112/286/12 119/303/12 118/301/12
f 112/286/13 117/298/13 111/283/13
f 101/259/3 103/264/3 112/286/3
f 109/279/14 110/280/14 116/295/14
f 107/274/7 97/249/7 109/279/7
f 105/268/15 113/287/15 112/286/15
f 99/253/16 110/280/16 109/279/16
f 109/279/17 115/293/17 120/306/17
f 112/286/18 113/287/18 119/303/18
f 112/286/19 118/301/19 117/298/19
f 101/260/20 110/282/20 99/254/20
f 107/275/21 113/289/21 105/269/21
f 116/296/22 118/302/22 120/307/22
f 111/285/23 116/297/23 110/281/23
f 114/292/24 119/305/24 113/288/24
f 101/260/20 111/284/20 110/282/20
f 107/275/21 114/291/21 113/289/21
f 120/307/22 115/294/22 116/296/22
f 116/296/22 117/299/22 118/302/22
f 118/302/22 119/304/22 120/307/22
f 111/285/23 117/300/23 116/297/23
f 114/292/24 120/308/24 119/305/24
f 2/4/25 3/7/25 1/1/25
f 9/26/26 8/22/26 7/19/26
f 7/20/27 6/17/27 5/13/27
f 32/84/28 1/3/28 21/56/28
f 7/21/29 26/65/29 9/25/29
f 4/11/30 32/82/30 15/37/30
f 8/24/31 27/68/31 6/16/31
f 20/53/32 28/71/32 27/67/32
f 19/50/33 29/74/33 28/70/33
f 18/47/34 30/76/34 29/73/34
f 16/41/35 30/77/35 17/43/35
f 15/38/36 31/80/36 16/40/36
f 3/8/37 21/55/37 1/2/37
f 13/34/29 21/55/29 14/35/29
f 12/31/29 22/58/29 13/34/29
f 11/29/29 23/59/29 12/31/29
f 10/28/29 24/61/29 11/29/29
f 9/25/29 25/64/29 10/28/29
f 6/18/28 26/66/28 5/14/28
f 26/66/28 28/72/28 25/63/28
f 28/72/28 24/62/28 25/63/28
f 29/75/28 23/60/28 24/62/28
f 23/60/28 31/81/28 22/57/28
f 31/81/28 21/56/28 22/57/28
f 3/9/26 15/39/26 14/36/26
f 14/36/26 16/42/26 13/33/26
f 16/42/26 12/32/26 13/33/26
f 12/32/26 18/48/26 11/30/26
f 11/30/26 19/51/26 10/27/26
f 19/51/26 9/26/26 10/27/26
f 33/85/38 36/94/38 35/91/38
f 41/110/39 40/107/39 39/103/39
f 40/108/40 37/98/40 39/104/40
f 64/168/41 33/86/41 53/140/41
f 39/105/42 58/149/42 41/109/42
f 36/95/43 64/166/43 47/121/43
f 52/136/44 38/101/44 40/106/44
f 52/137/45 60/155/45 59/151/45
f 51/134/46 61/158/46 60/154/46
f 50/131/47 62/160/47 61/157/47
f 48/125/48 62/161/48 49/127/48
f 47/122/49 63/164/49 48/124/49
f 46/119/42 33/87/42 35/92/42
f 45/118/42 53/139/42 46/119/42
f 44/115/42 54/142/42 45/118/42
f 43/113/42 55/143/42 44/115/42
f 42/112/42 56/145/42 43/113/42
f 41/109/42 57/148/42 42/112/42
f 38/102/41 58/150/41 37/97/41
f 58/150/41 60/156/41 57/147/41
f 60/156/41 56/146/41 57/147/41
f 61/159/41 55/144/41 56/146/41
f 55/144/41 63/165/41 54/141/41
f 63/165/41 53/140/41 54/141/41
f 35/93/39 47/123/39 46/120/39
f 46/120/39 48/126/39 45/117/39
f 48/126/39 44/116/39 45/117/39
f 44/116/39 50/132/39 43/114/39
f 43/114/39 51/135/39 42/111/39
f 51/135/39 41/110/39 42/111/39
f 66/172/50 67/176/50 65/169/50
f 73/192/51 72/189/51 71/186/51
f 71/187/52 70/184/52 69/181/52
f 96/248/53 65/170/53 85/221/53
f 71/188/54 90/230/54 73/191/54
f 79/203/55 66/174/55 96/246/55
f 84/218/56 70/184/56 72/190/56
f 83/214/57 91/233/57 84/217/57
f 83/215/58 93/238/58 92/235/58
f 82/212/59 94/240/59 93/238/59
f 80/207/60 94/241/60 81/209/60
f 79/204/61 95/244/61 80/206/61
f 78/201/54 65/171/54 67/175/54
f 77/200/54 85/220/54 78/201/54
f 76/197/54 86/223/54 77/200/54
f 75/195/54 87/224/54 76/197/54
f 74/194/54 88/226/54 75/195/54
f 73/191/54 89/229/54 74/194/54
f 70/185/53 90/231/53 69/182/53
f 90/231/53 92/237/53 89/228/53
f 92/237/53 88/227/53 89/228/53
f 93/239/53 87/225/53 88/227/53
f 87/225/53 95/245/53 86/222/53
f 95/245/53 85/221/53 86/222/53
f 67/177/51 79/205/51 78/202/51
f 78/202/51 80/208/51 77/199/51
f 80/208/51 76/198/51 77/199/51
f 76/198/51 82/213/51 75/196/51
f 75/196/51 83/216/51 74/193/51
f 83/216/51 73/192/51 74/193/51
f 2/4/25 4/10/25 3/7/25
f 9/26/26 20/54/26 8/22/26
f 7/20/27 8/23/27 6/17/27
f 32/84/28 2/5/28 1/3/28
f 7/21/29 5/15/29 26/65/29
f 4/11/62 2/6/62 32/82/62
f 8/24/31 20/52/31 27/68/31
f 20/53/32 19/49/32 28/71/32
f 19/50/33 18/46/33 29/74/33
f 18/47/63 17/44/63 30/76/63
f 16/41/35 31/79/35 30/77/35
f 15/38/36 32/83/36 31/80/36
f 3/8/29 14/35/29 21/55/29
f 13/34/29 22/58/29 21/55/29
f 12/31/29 23/59/29 22/58/29
f 11/29/29 24/61/29 23/59/29
f 10/28/29 25/64/29 24/61/29
f 9/25/29 26/65/29 25/64/29
f 6/18/28 27/69/28 26/66/28
f 26/66/28 27/69/28 28/72/28
f 28/72/28 29/75/28 24/62/28
f 29/75/28 30/78/28 23/60/28
f 23/60/28 30/78/28 31/81/28
f 31/81/28 32/84/28 21/56/28
f 3/9/26 4/12/26 15/39/26
f 14/36/26 15/39/26 16/42/26
f 16/42/26 17/45/26 12/32/26
f 12/32/26 17/45/26 18/48/26
f 11/30/26 18/48/26 19/51/26
f 19/51/26 20/54/26 9/26/26
f 33/85/38 34/88/38 36/94/38
f 41/110/39 52/138/39 40/107/39
f 40/108/64 38/100/64 37/98/64
f 64/168/41 34/89/41 33/86/41
f 39/105/42 37/99/42 58/149/42
f 36/95/65 34/90/65 64/166/65
f 52/136/44 59/152/44 38/101/44
f 52/137/45 51/133/45 60/155/45
f 51/134/66 50/130/66 61/158/66
f 50/131/47 49/128/47 62/160/47
f 48/125/48 63/163/48 62/161/48
f 47/122/67 64/167/67 63/164/67
f 46/119/42 53/139/42 33/87/42
f 45/118/42 54/142/42 53/139/42
f 44/115/42 55/143/42 54/142/42
f 43/113/42 56/145/42 55/143/42
f 42/112/42 57/148/42 56/145/42
f 41/109/42 58/149/42 57/148/42
f 38/102/41 59/153/41 58/150/41
f 58/150/41 59/153/41 60/156/41
f 60/156/41 61/159/41 56/146/41
f 61/159/41 62/162/41 55/144/41
f 55/144/41 62/162/41 63/165/41
f 63/165/41 64/168/41 53/140/41
f 35/93/39 36/96/39 47/123/39
f 46/120/39 47/123/39 48/126/39
f 48/126/39 49/129/39 44/116/39
f 44/116/39 49/129/39 50/132/39
f 43/114/39 50/132/39 51/135/39
f 51/135/68 52/138/68 41/110/68
f 66/172/50 68/178/50 67/176/50
f 73/192/51 84/219/51 72/189/51
f 71/187/52 72/190/52 70/184/52
f 96/248/53 66/173/53 65/170/53
f 71/188/54 69/183/54 90/230/54
f 79/203/55 68/179/55 66/174/55
f 84/218/56 91/232/56 70/184/56
f 83/214/57 92/236/57 91/233/57
f 83/215/58 82/212/58 93/238/58
f 82/212/59 81/210/59 94/240/59
f 80/207/60 95/243/60 94/241/60
f 79/204/61 96/247/61 95/244/61
f 78/201/54 85/220/54 65/171/54
f 77/200/54 86/223/54 85/220/54
f 76/197/54 87/224/54 86/223/54
f 75/195/54 88/226/54 87/224/54
f 74/194/54 89/229/54 88/226/54
f 73/191/54 90/230/54 89/229/54
f 70/185/53 91/234/53 90/231/53
f 90/231/53 91/234/53 92/237/53
f 92/237/53 93/239/53 88/227/53
f 93/239/53 94/242/53 87/225/53
f 87/225/53 94/242/53 95/245/53
f 95/245/53 96/248/53 85/221/53
f 67/177/51 68/180/51 79/205/51
f 78/202/51 79/205/51 80/208/51
f 80/208/51 81/211/51 76/198/51
f 76/198/51 81/211/51 82/213/51
f 75/196/51 82/213/51 83/216/51
f 83/216/51 84/219/51 73/192/51
