# Blender 3.5.0
# www.blender.org
mtllib L_Arm.mtl
o 立方体
v -1.202471 -0.900454 0.081591
v -0.600091 0.366943 0.107591
v -1.196583 -0.893261 -0.290087
v -0.578750 0.394462 -0.220409
v -0.839731 -0.981896 0.085762
v -0.593679 0.038282 0.080434
v -0.833842 -0.974702 -0.285916
v -0.572338 0.065801 -0.247566
v -1.071394 -0.302365 0.098184
v -1.065412 -0.295057 -0.279372
v -0.696935 -0.377787 -0.275135
v -0.702917 -0.385094 0.102420
v -1.159779 -0.622399 -0.307893
v -0.750941 -0.714190 -0.303192
v -0.757577 -0.722298 0.115719
v -1.166415 -0.630507 0.111018
v -1.029719 0.013165 0.133026
v -1.022849 0.021559 -0.300644
v -0.599606 -0.073466 -0.295778
v -0.606477 -0.081860 0.137892
vn -0.6435 0.7654 0.0046
vn 0.0466 0.1568 -0.9865
vn 0.9950 -0.0994 0.0138
vn 0.0036 0.0673 0.9977
vn -0.2188 -0.9755 -0.0223
vn 0.9977 0.0140 0.0661
vn -0.0025 0.0398 0.9992
vn 0.9871 -0.1595 0.0126
vn 0.0291 0.0784 -0.9965
vn -0.9606 0.2778 -0.0098
vn -0.9909 0.1338 -0.0131
vn -0.0032 -0.0652 -0.9979
vn 0.9530 -0.3027 0.0092
vn -0.0347 -0.1037 0.9940
vn -0.0350 -0.1051 0.9938
vn 0.9526 -0.3040 0.0092
vn -0.0035 -0.0666 -0.9978
vn -0.9911 0.1324 -0.0131
vn -0.6347 0.7724 0.0235
vn 0.7727 0.0672 -0.6312
vn 0.9772 -0.2073 0.0462
vn 0.9757 0.0009 0.2192
vt 0.125000 0.750000
vt 0.375000 1.000000
vt 0.375000 0.000000
vt 0.625000 0.000000
vt 0.625000 1.000000
vt 0.875000 0.750000
vt 0.375000 0.250000
vt 0.125000 0.500000
vt 0.625000 0.250000
vt 0.875000 0.500000
vt 0.375000 0.750000
vt 0.625000 0.750000
vt 0.375000 0.500000
vt 0.625000 0.500000
vt 0.500000 1.000000
vt 0.500000 0.000000
vt 0.500000 0.250000
vt 0.500000 0.500000
vt 0.500000 0.750000
vt 0.437500 0.250000
vt 0.437500 0.500000
vt 0.437500 0.750000
vt 0.437500 0.000000
vt 0.437500 1.000000
vt 0.562500 1.000000
vt 0.562500 0.000000
vt 0.562500 0.250000
vt 0.562500 0.500000
vt 0.562500 0.750000
s 0
usemtl マテリアル
f 17/26/1 4/9/1 18/27/1
f 4/9/2 19/28/2 18/27/2
f 19/28/3 6/12/3 20/29/3
f 20/29/4 2/5/4 17/25/4
f 3/8/5 5/11/5 1/1/5
f 4/10/6 6/12/6 8/14/6
f 15/22/7 9/15/7 16/24/7
f 11/18/8 15/22/8 14/21/8
f 10/17/9 14/21/9 13/20/9
f 16/23/10 10/17/10 13/20/10
f 1/3/11 13/20/11 3/7/11
f 13/20/12 7/13/12 3/7/12
f 14/21/13 5/11/13 7/13/13
f 5/11/14 16/24/14 1/2/14
f 12/19/15 17/25/15 9/15/15
f 19/28/16 12/19/16 11/18/16
f 18/27/17 11/18/17 10/17/17
f 9/16/18 18/27/18 10/17/18
f 17/26/19 2/4/19 4/9/19
f 4/9/20 8/14/20 19/28/20
f 19/28/21 8/14/21 6/12/21
f 20/29/22 6/12/22 2/5/22
f 3/8/5 7/13/5 5/11/5
f 4/10/6 2/6/6 6/12/6
f 15/22/7 12/19/7 9/15/7
f 11/18/8 12/19/8 15/22/8
f 10/17/9 11/18/9 14/21/9
f 16/23/10 9/16/10 10/17/10
f 1/3/11 16/23/11 13/20/11
f 13/20/12 14/21/12 7/13/12
f 14/21/13 15/22/13 5/11/13
f 5/11/14 15/22/14 16/24/14
f 12/19/15 20/29/15 17/25/15
f 19/28/16 20/29/16 12/19/16
f 18/27/17 19/28/17 11/18/17
f 9/16/18 17/26/18 18/27/18
