# Blender 3.5.0
# www.blender.org
mtllib ground.mtl
o 平面
v -25.000000 0.000000 25.000000
v 25.000000 0.000000 25.000000
v -25.000000 0.000000 -25.000000
v 25.000000 0.000000 -25.000000
vn -0.0000 1.0000 -0.0000
vt 0.000000 0.000000
vt 1.000000 0.000000
vt 0.000000 1.000000
vt 1.000000 1.000000
s 0
f 1/1/1 2/2/1 4/4/1 3/3/1
o 平面.001
v -25.000000 0.000000 0.000000
v 25.000000 0.000000 0.000000
v -25.000000 0.000000 0.000000
v 25.000000 0.000000 0.000000
vn -0.0000 -0.0000 -0.0000
vt 0.000000 0.000000
vt 1.000000 0.000000
vt 0.000000 1.000000
vt 1.000000 1.000000
s 0
usemtl マテリアル
f 6/6/2 7/7/2 5/5/2
f 6/6/2 8/8/2 7/7/2
